<svg width="25" height="26" viewBox="0 0 25 26" fill="none" xmlns="http://www.w3.org/2000/svg">
<g clip-path="url(#clip0_2_384)">
<path d="M-24 -4H27C27.5523 -4 28 -3.55228 28 -3V28C28 28.5523 27.5523 29 27 29H-24V-4Z" fill="#EBEBEB"/>
<path d="M7.29175 11.9167H9.37508V14.0833H7.29175V11.9167ZM7.29175 16.25H9.37508V18.4167H7.29175V16.25ZM11.4584 11.9167H13.5417V14.0833H11.4584V11.9167ZM11.4584 16.25H13.5417V18.4167H11.4584V16.25ZM15.6251 11.9167H17.7084V14.0833H15.6251V11.9167ZM15.6251 16.25H17.7084V18.4167H15.6251V16.25Z" fill="#5F5F5F"/>
<path d="M5.20833 23.8333H19.7917C20.9406 23.8333 21.875 22.8616 21.875 21.6667V6.50001C21.875 5.30509 20.9406 4.33334 19.7917 4.33334H17.7083V2.16667H15.625V4.33334H9.375V2.16667H7.29167V4.33334H5.20833C4.05937 4.33334 3.125 5.30509 3.125 6.50001V21.6667C3.125 22.8616 4.05937 23.8333 5.20833 23.8333ZM19.7917 8.66667L19.7927 21.6667H5.20833V8.66667H19.7917Z" fill="#5F5F5F"/>
</g>
<defs>
<clipPath id="clip0_2_384">
<rect width="25" height="26" fill="white"/>
</clipPath>
</defs>
</svg>
